<svg width="23" height="21" viewBox="0 0 23 21" fill="none" xmlns="http://www.w3.org/2000/svg">
<path d="M22 21H1V0H22V21Z" stroke="#E5E7EB"/>
<g clip-path="url(#clip0_226_264)">
<path d="M5.8125 1.35547C6.03125 2.01172 5.67578 2.71875 5.02344 2.9375L4 3.27734V8C4 10.0703 5.67969 11.75 7.75 11.75C9.82031 11.75 11.5 10.0703 11.5 8V3.27734L10.4805 2.9375C9.82422 2.71875 9.47266 2.01172 9.69141 1.35547C9.91016 0.699217 10.6172 0.347655 11.2734 0.566405L12.293 0.906248C13.3125 1.24609 14 2.19922 14 3.27734V8C14 11.0156 11.8672 13.5312 9.02734 14.1211C9.27344 16.3047 11.125 18 13.375 18C15.793 18 17.75 16.043 17.75 13.625V10.8633C16.6445 10.3828 15.875 9.28125 15.875 8C15.875 6.27344 17.2734 4.875 19 4.875C20.7266 4.875 22.125 6.27344 22.125 8C22.125 9.28125 21.3555 10.3828 20.25 10.8633V13.625C20.25 17.4219 17.1719 20.5 13.375 20.5C9.74609 20.5 6.77734 17.6914 6.51953 14.1289C3.65625 13.5547 1.5 11.0312 1.5 8V3.27734C1.5 2.20312 2.1875 1.24609 3.21094 0.906248L4.23047 0.566405C4.88672 0.347655 5.59375 0.703123 5.8125 1.35547ZM19 9.25C19.3315 9.25 19.6495 9.1183 19.8839 8.88388C20.1183 8.64946 20.25 8.33152 20.25 8C20.25 7.66848 20.1183 7.35054 19.8839 7.11612C19.6495 6.88169 19.3315 6.75 19 6.75C18.6685 6.75 18.3505 6.88169 18.1161 7.11612C17.8817 7.35054 17.75 7.66848 17.75 8C17.75 8.33152 17.8817 8.64946 18.1161 8.88388C18.3505 9.1183 18.6685 9.25 19 9.25Z" fill="#385BA6"/>
</g>
<defs>
<clipPath id="clip0_226_264">
<path d="M0.25 0.5H22.75V20.5H0.25V0.5Z" fill="white"/>
</clipPath>
</defs>
</svg>
