<svg width="18" height="26" viewBox="0 0 18 26" fill="none" xmlns="http://www.w3.org/2000/svg">
<g clip-path="url(#clip0_280_3626)">
<path d="M9 1.5C7.04063 1.5 5.37187 2.69941 4.75781 4.375H3C1.34531 4.375 0 5.66426 0 7.25V21.625C0 23.2107 1.34531 24.5 3 24.5H15C16.6547 24.5 18 23.2107 18 21.625V7.25C18 5.66426 16.6547 4.375 15 4.375H13.2422C12.6281 2.69941 10.9594 1.5 9 1.5ZM9 4.375C9.39782 4.375 9.77936 4.52645 10.0607 4.79603C10.342 5.06562 10.5 5.43125 10.5 5.8125C10.5 6.19375 10.342 6.55938 10.0607 6.82897C9.77936 7.09855 9.39782 7.25 9 7.25C8.60218 7.25 8.22064 7.09855 7.93934 6.82897C7.65804 6.55938 7.5 6.19375 7.5 5.8125C7.5 5.43125 7.65804 5.06562 7.93934 4.79603C8.22064 4.52645 8.60218 4.375 9 4.375ZM3.375 13.7188C3.375 13.4328 3.49353 13.1586 3.7045 12.9564C3.91548 12.7542 4.20163 12.6406 4.5 12.6406C4.79837 12.6406 5.08452 12.7542 5.2955 12.9564C5.50647 13.1586 5.625 13.4328 5.625 13.7188C5.625 14.0047 5.50647 14.2789 5.2955 14.4811C5.08452 14.6833 4.79837 14.7969 4.5 14.7969C4.20163 14.7969 3.91548 14.6833 3.7045 14.4811C3.49353 14.2789 3.375 14.0047 3.375 13.7188ZM8.25 13H14.25C14.6625 13 15 13.3234 15 13.7188C15 14.1141 14.6625 14.4375 14.25 14.4375H8.25C7.8375 14.4375 7.5 14.1141 7.5 13.7188C7.5 13.3234 7.8375 13 8.25 13ZM3.375 18.0312C3.375 17.7453 3.49353 17.4711 3.7045 17.2689C3.91548 17.0667 4.20163 16.9531 4.5 16.9531C4.79837 16.9531 5.08452 17.0667 5.2955 17.2689C5.50647 17.4711 5.625 17.7453 5.625 18.0312C5.625 18.3172 5.50647 18.5914 5.2955 18.7936C5.08452 18.9958 4.79837 19.1094 4.5 19.1094C4.20163 19.1094 3.91548 18.9958 3.7045 18.7936C3.49353 18.5914 3.375 18.3172 3.375 18.0312ZM7.5 18.0312C7.5 17.6359 7.8375 17.3125 8.25 17.3125H14.25C14.6625 17.3125 15 17.6359 15 18.0312C15 18.4266 14.6625 18.75 14.25 18.75H8.25C7.8375 18.75 7.5 18.4266 7.5 18.0312Z" fill="#8F929C"/>
</g>
<defs>
<clipPath id="clip0_280_3626">
<path d="M0 1.5H18V24.5H0V1.5Z" fill="white"/>
</clipPath>
</defs>
</svg>
