<svg width="22" height="22" viewBox="0 0 22 22" fill="none" xmlns="http://www.w3.org/2000/svg">
<g clip-path="url(#clip0_261_3512)">
<g clip-path="url(#clip1_261_3512)">
<path d="M19.5556 4.88889H17.1111V3.66667C17.1111 2.69421 16.7248 1.76158 16.0372 1.07394C15.3495 0.386309 14.4169 0 13.4444 0H8.55556C7.5831 0 6.65046 0.386309 5.96283 1.07394C5.2752 1.76158 4.88889 2.69421 4.88889 3.66667V4.88889H2.44444C1.79673 4.89082 1.1761 5.14898 0.718098 5.60699C0.260095 6.06499 0.00193444 6.68562 0 7.33333V19.5556C0.00193444 20.2033 0.260095 20.8239 0.718098 21.2819C1.1761 21.7399 1.79673 21.9981 2.44444 22H19.5556C20.2033 21.9981 20.8239 21.7399 21.2819 21.2819C21.7399 20.8239 21.9981 20.2033 22 19.5556V7.33333C21.9981 6.68562 21.7399 6.06499 21.2819 5.60699C20.8239 5.14898 20.2033 4.89082 19.5556 4.88889ZM7.33333 3.66667C7.33333 3.34251 7.4621 3.03164 7.69131 2.80243C7.92053 2.57321 8.2314 2.44444 8.55556 2.44444H13.4444C13.7686 2.44444 14.0795 2.57321 14.3087 2.80243C14.5379 3.03164 14.6667 3.34251 14.6667 3.66667V4.88889H7.33333V3.66667ZM14.6667 14.6667H12.2222V17.1111H9.77778V14.6667H7.33333V12.2222H9.77778V9.77778H12.2222V12.2222H14.6667V14.6667Z" fill="#8F929C"/>
</g>
</g>
<defs>
<clipPath id="clip0_261_3512">
<rect width="22" height="22" fill="white"/>
</clipPath>
<clipPath id="clip1_261_3512">
<rect width="22" height="22" fill="white"/>
</clipPath>
</defs>
</svg>
