<svg width="25" height="25" viewBox="0 0 25 25" fill="none" xmlns="http://www.w3.org/2000/svg">
<path d="M15.7408 20.8333C15.7408 21.8852 15.123 22.6903 14.1198 23.2166C13.117 23.7425 11.8812 23.7425 10.8802 23.2166C9.87668 22.6903 9.25928 21.8852 9.25928 20.8333" fill="#8F929C"/>
<path d="M12.4997 1.38892C13.4181 1.38892 14.1579 1.95382 14.1579 2.82252C14.1579 3.36931 14.177 3.77729 14.5214 3.88179C17.4502 4.76409 19.3282 6.83216 19.3282 9.51786V14.0319C19.3282 16.1 20.1763 16.5186 21.2435 17.3097C22.7891 18.4534 22.4363 20.835 20.6627 20.8334H4.33741C2.56381 20.835 2.21097 18.4534 3.75659 17.3097C4.82256 16.5186 5.6719 16.1 5.6719 14.0319V9.51786C5.6719 6.83216 7.54993 4.76409 10.4787 3.88179C10.8221 3.77729 10.8422 3.36931 10.8422 2.82252C10.8426 1.95382 11.5826 1.38892 12.4997 1.38892Z" fill="#8F929C"/>
</svg>
