<svg width="20" height="20" viewBox="0 0 20 20" fill="none" xmlns="http://www.w3.org/2000/svg">
<path d="M6 1.66667C6 1.29848 5.77614 1 5.5 1C5.22386 1 5 1.29848 5 1.66667V2.33333C5 2.70152 5.22386 3 5.5 3C5.77614 3 6 2.70152 6 2.33333V1.66667Z" fill="#8F929C"/>
<path d="M15 1.66667C15 1.29848 14.7761 1 14.5 1C14.2239 1 14 1.29848 14 1.66667V2.33333C14 2.70152 14.2239 3 14.5 3C14.7761 3 15 2.70152 15 2.33333V1.66667Z" fill="#8F929C"/>
<path d="M2 7V15.5185C2 16.3367 2.7164 17 3.6 17H16.4C17.2836 17 18 16.3367 18 15.5185V7H2ZM6.8 14.4074C6.8 14.8167 6.442 15.1481 6 15.1481H5.2C4.758 15.1481 4.4 14.8167 4.4 14.4074V13.6667C4.4 13.2574 4.758 12.9259 5.2 12.9259H6C6.442 12.9259 6.8 13.2574 6.8 13.6667V14.4074ZM6.8 10.3333C6.8 10.7426 6.442 11.0741 6 11.0741H5.2C4.758 11.0741 4.4 10.7426 4.4 10.3333V9.59259C4.4 9.18333 4.758 8.85185 5.2 8.85185H6C6.442 8.85185 6.8 9.18333 6.8 9.59259V10.3333ZM11.2 14.4074C11.2 14.8167 10.842 15.1481 10.4 15.1481H9.6C9.158 15.1481 8.8 14.8167 8.8 14.4074V13.6667C8.8 13.2574 9.158 12.9259 9.6 12.9259H10.4C10.842 12.9259 11.2 13.2574 11.2 13.6667V14.4074ZM11.2 10.3333C11.2 10.7426 10.842 11.0741 10.4 11.0741H9.6C9.158 11.0741 8.8 10.7426 8.8 10.3333V9.59259C8.8 9.18333 9.158 8.85185 9.6 8.85185H10.4C10.842 8.85185 11.2 9.18333 11.2 9.59259V10.3333ZM15.6 14.4074C15.6 14.8167 15.242 15.1481 14.8 15.1481H14C13.558 15.1481 13.2 14.8167 13.2 14.4074V13.6667C13.2 13.2574 13.558 12.9259 14 12.9259H14.8C15.242 12.9259 15.6 13.2574 15.6 13.6667V14.4074ZM15.6 10.3333C15.6 10.7426 15.242 11.0741 14.8 11.0741H14C13.558 11.0741 13.2 10.7426 13.2 10.3333V9.59259C13.2 9.18333 13.558 8.85185 14 8.85185H14.8C15.242 8.85185 15.6 9.18333 15.6 9.59259V10.3333Z" fill="#8F929C"/>
<path d="M18 6V3.6C18 2.7164 17.2836 2 16.4 2H16V2.4C16 3.2824 15.2824 4 14.4 4C13.5176 4 12.8 3.2824 12.8 2.4V2H7.2V2.4C7.2 3.2824 6.4824 4 5.6 4C4.7176 4 4 3.2824 4 2.4V2H3.6C2.7164 2 2 2.7164 2 3.6V6H18Z" fill="#8F929C"/>
</svg>
