<svg width="17" height="16" viewBox="0 0 17 16" fill="none" xmlns="http://www.w3.org/2000/svg">
<g clip-path="url(#clip0_328_1369)">
<path d="M5.28571 0C5.87835 0 6.35714 0.446875 6.35714 1V2H10.6429V1C10.6429 0.446875 11.1217 0 11.7143 0C12.3069 0 12.7857 0.446875 12.7857 1V2H14.3929C15.2801 2 16 2.67188 16 3.5V5H1V3.5C1 2.67188 1.71987 2 2.60714 2H4.21429V1C4.21429 0.446875 4.69308 0 5.28571 0ZM1 6H16V14.5C16 15.3281 15.2801 16 14.3929 16H2.60714C1.71987 16 1 15.3281 1 14.5V6ZM12.0156 9.53125C12.3304 9.2375 12.3304 8.7625 12.0156 8.47188C11.7009 8.18125 11.192 8.17813 10.8806 8.47188L7.69978 11.4406L6.12612 9.97188C5.81138 9.67813 5.30245 9.67813 4.99107 9.97188C4.67969 10.2656 4.67634 10.7406 4.99107 11.0312L7.13393 13.0312C7.44866 13.325 7.95759 13.325 8.26897 13.0312L12.0156 9.53125Z" fill="#385BA6"/>
</g>
<defs>
<clipPath id="clip0_328_1369">
<path d="M1 0H16V16H1V0Z" fill="white"/>
</clipPath>
</defs>
</svg>
