<svg width="20" height="20" viewBox="0 0 20 20" fill="none" xmlns="http://www.w3.org/2000/svg">
<g clip-path="url(#clip0_246_84)">
<path d="M12.5 7.5C9.73833 7.5 7.5 9.73833 7.5 12.5C7.5 15.2617 9.73833 17.5 12.5 17.5C15.2617 17.5 17.5 15.2617 17.5 12.5C17.5 9.73833 15.2617 7.5 12.5 7.5ZM14.1667 13.125H13.125V14.1667C13.125 14.5117 12.845 14.7917 12.5 14.7917C12.155 14.7917 11.875 14.5117 11.875 14.1667V13.125H10.8333C10.4883 13.125 10.2083 12.845 10.2083 12.5C10.2083 12.155 10.4883 11.875 10.8333 11.875H11.875V10.8333C11.875 10.4883 12.155 10.2083 12.5 10.2083C12.845 10.2083 13.125 10.4883 13.125 10.8333V11.875H14.1667C14.5117 11.875 14.7917 12.155 14.7917 12.5C14.7917 12.845 14.5117 13.125 14.1667 13.125ZM6.45833 2.70833H5.20833V2.5C5.20833 2.15833 5.49167 1.875 5.83333 1.875C6.175 1.875 6.45833 2.15833 6.45833 2.5V2.70833ZM6.25 12.5C6.25 14 6.78333 15.375 7.66667 16.4583H4.16667C2.9 16.4583 1.875 15.4333 1.875 14.1667V8.125H8.04167C6.93333 9.25 6.25 10.7917 6.25 12.5ZM9.8 6.875H1.875V5C1.875 3.73333 2.9 2.70833 4.16667 2.70833H5.20833V4.16667C5.20833 4.50833 5.49167 4.79167 5.83333 4.79167C6.175 4.79167 6.45833 4.50833 6.45833 4.16667V2.70833H11.875V4.16667C11.875 4.50833 12.1583 4.79167 12.5 4.79167C12.8417 4.79167 13.125 4.50833 13.125 4.16667V2.70833H14.0667C15.3333 2.70833 16.3583 3.73333 16.3583 5V6.875H15.2083C14.3917 6.475 13.475 6.25 12.5 6.25C11.5333 6.25 10.6167 6.46667 9.8 6.875ZM13.125 2.70833H11.875V2.5C11.875 2.15833 12.1583 1.875 12.5 1.875C12.8417 1.875 13.125 2.15833 13.125 2.5V2.70833Z" fill="#8F929C"/>
</g>
<defs>
<clipPath id="clip0_246_84">
<rect width="20" height="20" fill="white"/>
</clipPath>
</defs>
</svg>
