<svg width="20" height="21" viewBox="0 0 20 21" fill="none" xmlns="http://www.w3.org/2000/svg">
<path d="M18.75 6.75V4.875C18.75 4.37772 18.5525 3.90081 18.2008 3.54917C17.8492 3.19754 17.3723 3 16.875 3H14.375V2.375C14.375 2.20924 14.3092 2.05027 14.1919 1.93306C14.0747 1.81585 13.9158 1.75 13.75 1.75C13.5842 1.75 13.4253 1.81585 13.3081 1.93306C13.1908 2.05027 13.125 2.20924 13.125 2.375V3H6.875V2.375C6.875 2.20924 6.80915 2.05027 6.69194 1.93306C6.57473 1.81585 6.41576 1.75 6.25 1.75C6.08424 1.75 5.92527 1.81585 5.80806 1.93306C5.69085 2.05027 5.625 2.20924 5.625 2.375V3H3.125C2.62772 3 2.15081 3.19754 1.79917 3.54917C1.44754 3.90081 1.25 4.37772 1.25 4.875V6.75H18.75Z" fill="#209443"/>
<path d="M1.25 8V17.375C1.25 17.8723 1.44754 18.3492 1.79917 18.7008C2.15081 19.0525 2.62772 19.25 3.125 19.25H16.875C17.3723 19.25 17.8492 19.0525 18.2008 18.7008C18.5525 18.3492 18.75 17.8723 18.75 17.375V8H1.25ZM13.5312 11.5994L9.15625 15.3494C9.03666 15.4516 8.88292 15.505 8.7257 15.4989C8.56849 15.4927 8.41937 15.4275 8.30813 15.3162L6.43313 13.4412C6.31928 13.3234 6.25628 13.1655 6.2577 13.0016C6.25913 12.8378 6.32486 12.681 6.44074 12.5651C6.55662 12.4492 6.71338 12.3835 6.87725 12.3821C7.04112 12.3807 7.199 12.4437 7.31687 12.5575L8.78313 14.0238L12.7206 10.6488C12.7826 10.5929 12.8551 10.55 12.9339 10.5226C13.0127 10.4952 13.0962 10.4839 13.1795 10.4893C13.2627 10.4947 13.3441 10.5167 13.4187 10.554C13.4933 10.5913 13.5597 10.6432 13.6139 10.7066C13.6682 10.77 13.7092 10.8436 13.7345 10.9231C13.7599 11.0026 13.769 11.0863 13.7615 11.1694C13.754 11.2525 13.7299 11.3332 13.6907 11.4069C13.6515 11.4805 13.5979 11.5455 13.5331 11.5981L13.5312 11.5994Z" fill="#209443"/>
</svg>
