<svg width="20" height="21" viewBox="0 0 20 21" fill="none" xmlns="http://www.w3.org/2000/svg">
<g clip-path="url(#clip0_173_4948)">
<path d="M5 1.75V3H3.125C2.08984 3 1.25 3.83984 1.25 4.875V6.75H18.75V4.875C18.75 3.83984 17.9102 3 16.875 3H15V1.75C15 1.05859 14.4414 0.5 13.75 0.5C13.0586 0.5 12.5 1.05859 12.5 1.75V3H7.5V1.75C7.5 1.05859 6.94141 0.5 6.25 0.5C5.55859 0.5 5 1.05859 5 1.75ZM18.75 8H1.25V18.625C1.25 19.6602 2.08984 20.5 3.125 20.5H16.875C17.9102 20.5 18.75 19.6602 18.75 18.625V8ZM10 10.1875C10.5195 10.1875 10.9375 10.6055 10.9375 11.125V13.3125H13.125C13.6445 13.3125 14.0625 13.7305 14.0625 14.25C14.0625 14.7695 13.6445 15.1875 13.125 15.1875H10.9375V17.375C10.9375 17.8945 10.5195 18.3125 10 18.3125C9.48047 18.3125 9.0625 17.8945 9.0625 17.375V15.1875H6.875C6.35547 15.1875 5.9375 14.7695 5.9375 14.25C5.9375 13.7305 6.35547 13.3125 6.875 13.3125H9.0625V11.125C9.0625 10.6055 9.48047 10.1875 10 10.1875Z" fill="#385BA6"/>
</g>
<defs>
<clipPath id="clip0_173_4948">
<path d="M0 0.5H20V20.5H0V0.5Z" fill="white"/>
</clipPath>
</defs>
</svg>
