<svg width="96" height="106" viewBox="0 0 96 106" fill="none" xmlns="http://www.w3.org/2000/svg">
<circle cx="48.41" cy="52.5898" r="34.8633" fill="#385BA6"/>
<path d="M46.0777 54.9077C44.6767 56.2729 42.4364 56.2511 41.0622 54.859L38.3554 52.1169C37.8083 51.5626 37.0091 51.3385 36.2536 51.5274C35.3459 51.7543 34.6806 52.5299 34.5944 53.4615L34.5739 53.6835C34.505 54.4288 34.7712 55.1661 35.3005 55.6953L41.0298 61.4246C42.4193 62.8142 44.6722 62.8142 46.0618 61.4246L61.507 45.9793C62.3417 45.1447 62.3634 43.7983 61.5561 42.9372C60.7187 42.0439 59.3112 42.0121 58.4343 42.8666L46.0777 54.9077Z" fill="white"/>
<circle opacity="0.9" cx="88.6055" cy="20.5977" r="4.51172" fill="#385BA6"/>
<circle opacity="0.5" cx="93.1172" cy="61.2031" r="2.46094" fill="#9294BA"/>
<circle opacity="0.5" cx="38.9766" cy="2.14062" r="1.64062" fill="#385BA6"/>
<circle opacity="0.5" cx="10.2656" cy="76.7891" r="1.64062" fill="#385BA6"/>
<circle opacity="0.5" cx="2.88281" cy="41.5156" r="2.46094" fill="#9294BA"/>
<circle opacity="0.5" cx="6.16406" cy="96.4766" r="2.46094" fill="#9294BA"/>
<circle opacity="0.9" cx="8.21484" cy="13.2148" r="4.51172" fill="#385BA6"/>
<circle opacity="0.9" cx="73.8398" cy="100.988" r="4.51172" fill="#385BA6"/>
</svg>
