<svg width="20" height="18" viewBox="0 0 20 18" fill="none" xmlns="http://www.w3.org/2000/svg">
<g clip-path="url(#clip0_284_4968)">
<path d="M2.22222 0C0.996528 0 0 1.00898 0 2.25V15.75C0 16.991 0.996528 18 2.22222 18H11.1111C12.3368 18 13.3333 16.991 13.3333 15.75V15.0715C13.2396 15.1102 13.1458 15.1418 13.0486 15.1664L10.9618 15.6937C10.8576 15.7184 10.7535 15.7359 10.6493 15.743C10.6181 15.7465 10.5868 15.75 10.5556 15.75H8.33333C8.12153 15.75 7.93056 15.6305 7.83681 15.4406L7.53125 14.8184C7.47222 14.6988 7.35417 14.625 7.2257 14.625C7.09722 14.625 6.97569 14.6988 6.92014 14.8184L6.61458 15.4406C6.51389 15.648 6.29514 15.7711 6.06944 15.75C5.84375 15.7289 5.64931 15.5707 5.58681 15.3527L5 13.3945L4.65972 14.5477C4.44792 15.2613 3.79861 15.75 3.0625 15.75H2.77778C2.47222 15.75 2.22222 15.4969 2.22222 15.1875C2.22222 14.8781 2.47222 14.625 2.77778 14.625H3.0625C3.30903 14.625 3.52431 14.4633 3.59375 14.2242L4.11111 12.484C4.22917 12.0867 4.59028 11.8125 5 11.8125C5.40972 11.8125 5.77083 12.0867 5.88889 12.484L6.29167 13.841C6.54861 13.623 6.875 13.5 7.22222 13.5C7.77431 13.5 8.27778 13.8164 8.52431 14.3156L8.67708 14.625H8.98611C8.87847 14.3156 8.85764 13.9781 8.9375 13.6477L9.45833 11.5348C9.55556 11.1375 9.75695 10.7789 10.0417 10.4906L13.3333 7.15781V5.625H8.88889C8.27431 5.625 7.77778 5.12227 7.77778 4.5V0H2.22222ZM8.88889 0V4.5H13.3333L8.88889 0ZM19.0903 4.91133C18.5486 4.36289 17.6701 4.36289 17.125 4.91133L16.1042 5.94492L18.5694 8.44102L19.5903 7.40742C20.1319 6.85898 20.1319 5.96953 19.5903 5.41758L19.0903 4.91133ZM10.8299 11.2852C10.6875 11.4293 10.5868 11.6086 10.5382 11.809L10.0174 13.9219C9.96875 14.1152 10.0243 14.3156 10.1632 14.4563C10.3021 14.5969 10.5 14.6531 10.691 14.6039L12.7778 14.0766C12.9722 14.0273 13.1528 13.9254 13.2951 13.7812L17.7812 9.23555L15.316 6.73945L10.8299 11.2852Z" fill="#385BA6"/>
</g>
<defs>
<clipPath id="clip0_284_4968">
<path d="M0 0H20V18H0V0Z" fill="white"/>
</clipPath>
</defs>
</svg>
