<svg width="20" height="20" viewBox="0 0 20 20" fill="none" xmlns="http://www.w3.org/2000/svg">
<path d="M20 20H0V0H20V20Z" stroke="#E5E7EB"/>
<g clip-path="url(#clip0_82_390)">
<path d="M6.01875 3.59878C6.17187 4.05815 5.92305 4.55308 5.46641 4.7062L4.75 4.94409V8.24995C4.75 9.69917 5.92578 10.875 7.375 10.875C8.82422 10.875 10 9.69917 10 8.24995V4.94409L9.28633 4.7062C8.82695 4.55308 8.58086 4.05815 8.73398 3.59878C8.88711 3.1394 9.38203 2.89331 9.84141 3.04643L10.5551 3.28433C11.2687 3.52222 11.75 4.1894 11.75 4.94409V8.24995C11.75 10.3609 10.257 12.1218 8.26914 12.5347C8.44141 14.0632 9.7375 15.25 11.3125 15.25C13.0051 15.25 14.375 13.88 14.375 12.1875V10.2542C13.6012 9.91792 13.0625 9.14683 13.0625 8.24995C13.0625 7.04136 14.0414 6.06245 15.25 6.06245C16.4586 6.06245 17.4375 7.04136 17.4375 8.24995C17.4375 9.14683 16.8988 9.91792 16.125 10.2542V12.1875C16.125 14.8453 13.9703 17 11.3125 17C8.77227 17 6.69414 15.0339 6.51367 12.5402C4.50937 12.1382 3 10.3718 3 8.24995V4.94409C3 4.19214 3.48125 3.52222 4.19766 3.28433L4.91133 3.04643C5.3707 2.89331 5.86562 3.14214 6.01875 3.59878ZM15.25 9.12495C15.4821 9.12495 15.7046 9.03276 15.8687 8.86867C16.0328 8.70457 16.125 8.48201 16.125 8.24995C16.125 8.01789 16.0328 7.79533 15.8687 7.63123C15.7046 7.46714 15.4821 7.37495 15.25 7.37495C15.0179 7.37495 14.7954 7.46714 14.6313 7.63123C14.4672 7.79533 14.375 8.01789 14.375 8.24995C14.375 8.48201 14.4672 8.70457 14.6313 8.86867C14.7954 9.03276 15.0179 9.12495 15.25 9.12495Z" fill="#8F929C"/>
</g>
<defs>
<clipPath id="clip0_82_390">
<path d="M2.125 3H17.875V17H2.125V3Z" fill="white"/>
</clipPath>
</defs>
</svg>
