<svg width="18" height="18" viewBox="0 0 18 18" fill="none" xmlns="http://www.w3.org/2000/svg">
<g clip-path="url(#clip0_284_4054)">
<path d="M6.54551 8.99996C8.80486 8.99996 10.6364 7.16839 10.6364 4.90904C10.6364 2.64968 8.80486 0.818115 6.54551 0.818115C4.28616 0.818115 2.45459 2.64968 2.45459 4.90904C2.45459 7.16839 4.28616 8.99996 6.54551 8.99996Z" fill="#385BA6"/>
<path d="M13.0909 14.7272C13.0909 16.0771 11.9863 17.1817 10.6364 17.1817H2.45454C1.10461 17.1817 0 16.0771 0 14.7272C0 12.4692 1.83273 10.6362 4.09092 10.6362H9C11.2582 10.6362 13.0909 12.4692 13.0909 14.7272Z" fill="#385BA6"/>
<path d="M15.5453 4.90904C15.5453 7.16702 13.7126 8.99996 11.4544 8.99996C11.1764 8.99996 10.8981 8.97521 10.6362 8.91006C11.6508 7.87893 12.2726 6.46351 12.2726 4.90904C12.2726 3.35457 11.6508 1.93914 10.6362 0.90801C10.8981 0.8429 11.1764 0.818115 11.4544 0.818115C13.7126 0.81815 15.5453 2.65106 15.5453 4.90904Z" fill="#385BA6"/>
<path d="M17.9999 14.7272C17.9999 16.0771 16.8953 17.1817 15.5454 17.1817H13.909C14.4244 16.5025 14.7272 15.6516 14.7272 14.7272C14.7272 13.1235 14.0645 11.6753 13.001 10.6362H13.909C16.1672 10.6362 17.9999 12.4692 17.9999 14.7272Z" fill="#385BA6"/>
</g>
<defs>
<clipPath id="clip0_284_4054">
<rect width="18" height="18" fill="white"/>
</clipPath>
</defs>
</svg>
