<svg width="19" height="18" viewBox="0 0 19 18" fill="none" xmlns="http://www.w3.org/2000/svg">
<g clip-path="url(#clip0_284_4581)">
<path d="M19 19.0625H0V0.0625H19V19.0625Z" stroke="#E5E7EB"/>
<path d="M8.47207 17.4705L1.76641 11.2102C1.61055 11.0654 1.46211 10.9096 1.3248 10.75H4.55332C5.39199 10.75 6.14902 10.2453 6.47187 9.46974L6.86152 8.53459L8.69102 12.5981C8.83203 12.9135 9.14004 13.1176 9.48516 13.1213C9.83027 13.125 10.1457 12.9358 10.3016 12.6277L11.875 9.47716L11.9381 9.60334C12.2906 10.3084 13.0105 10.7537 13.7973 10.7537H17.6752C17.5379 10.9133 17.3895 11.0692 17.2336 11.2139L10.5279 17.4705C10.2496 17.7303 9.88223 17.875 9.5 17.875C9.11777 17.875 8.75039 17.7303 8.47207 17.4705ZM18.692 8.96876H13.7936C13.6822 8.96876 13.5783 8.90568 13.5264 8.80548L12.6654 7.08732C12.5133 6.78673 12.2053 6.59377 11.8676 6.59377C11.5299 6.59377 11.2219 6.78302 11.0697 7.08732L9.5334 10.16L7.64082 5.93322C7.49609 5.61037 7.16953 5.40255 6.81699 5.40998C6.46445 5.4174 6.14531 5.62892 6.00801 5.95919L4.82793 8.79064C4.7834 8.90197 4.67207 8.97248 4.55332 8.97248H0.59375C0.497266 8.97248 0.408203 8.98732 0.322852 9.0133C0.111328 8.41955 0 7.78869 0 7.14669V6.93146C0 4.33752 1.87402 2.1258 4.43086 1.69904C6.12305 1.41701 7.84492 1.96994 9.05469 3.1797L9.5 3.62502L9.94531 3.1797C11.1551 1.96994 12.877 1.41701 14.5691 1.69904C17.126 2.1258 19 4.33752 19 6.93146V7.14669C19 7.77384 18.8961 8.38986 18.692 8.96876Z" fill="#385BA6"/>
</g>
<defs>
<clipPath id="clip0_284_4581">
<path d="M0 0H19V18H0V0Z" fill="white"/>
</clipPath>
</defs>
</svg>
