<svg width="22" height="22" viewBox="0 0 22 22" fill="none" xmlns="http://www.w3.org/2000/svg">
<g clip-path="url(#clip0_261_3508)">
<path d="M21.4066 9.56894C21.4061 9.56844 21.4056 9.56793 21.4051 9.56743L12.4308 0.593506C12.0483 0.210815 11.5397 0 10.9988 0C10.4578 0 9.94922 0.210648 9.56653 0.593338L0.596977 9.56273C0.593956 9.56575 0.590934 9.56894 0.587913 9.57196C-0.197609 10.362 -0.196266 11.6439 0.591774 12.4319C0.951805 12.7921 1.42731 13.0007 1.93572 13.0226C1.95637 13.0246 1.97718 13.0256 1.99816 13.0256H2.35584V19.6298C2.35584 20.9367 3.41915 22 4.72634 22H8.23736C8.59319 22 8.88189 21.7115 8.88189 21.3555V16.1777C8.88189 15.5814 9.36697 15.0963 9.96332 15.0963H12.0342C12.6306 15.0963 13.1157 15.5814 13.1157 16.1777V21.3555C13.1157 21.7115 13.4042 22 13.7602 22H17.2712C18.5784 22 19.6417 20.9367 19.6417 19.6298V13.0256H19.9734C20.5142 13.0256 21.0227 12.8149 21.4056 12.4322C22.1945 11.6429 22.1948 10.3588 21.4066 9.56894Z" fill="#385BA6"/>
</g>
<defs>
<clipPath id="clip0_261_3508">
<rect width="22" height="22" fill="white"/>
</clipPath>
</defs>
</svg>
