<svg width="20" height="20" viewBox="0 0 20 20" fill="none" xmlns="http://www.w3.org/2000/svg">
<path d="M18.5881 16.697H17.4049V8.20408C17.4049 7.81011 17.0813 7.48647 16.6803 7.48647H14.1687V1.71761C14.1687 1.32364 13.8451 1 13.4511 1H6.84504C6.45107 1 6.12743 1.32364 6.12743 1.71761V7.48647H3.6088C3.20779 7.48647 2.88419 7.81011 2.88419 8.20408V16.697H1.70352C1.31466 16.697 1 17.0116 1 17.4005C1 17.7893 1.31466 18.104 1.70352 18.104H18.5881C18.977 18.104 19.2916 17.7893 19.2916 17.4005C19.2916 17.0116 18.977 16.697 18.5881 16.697ZM12.825 10.2092C12.825 10.0473 12.9587 9.91364 13.1205 9.91364H14.2039C14.3657 9.91364 14.4994 10.0473 14.4994 10.2092V11.2926C14.4994 11.4544 14.3657 11.588 14.2039 11.588H13.1205C12.9587 11.588 12.825 11.4544 12.825 11.2926V10.2092ZM7.46414 14.8102C7.46414 14.972 7.33047 15.1057 7.16863 15.1057H6.08522C5.92342 15.1057 5.78975 14.972 5.78975 14.8102V13.7268C5.78975 13.5649 5.92342 13.4313 6.08522 13.4313H7.16863C7.33047 13.4313 7.46414 13.5649 7.46414 13.7268V14.8102ZM7.50635 11.3207C7.50635 11.4895 7.36564 11.6302 7.1968 11.6302H6.0571C5.88821 11.6302 5.74754 11.4895 5.74754 11.3207V10.181C5.74754 10.0121 5.88821 9.87143 6.0571 9.87143H7.1968C7.36564 9.87143 7.50635 10.0121 7.50635 10.181V11.3207ZM10.9888 14.8172C10.9888 14.979 10.8551 15.1127 10.6933 15.1127H9.5958C9.434 15.1127 9.30033 14.979 9.30033 14.8172V13.7197C9.30033 13.5579 9.434 13.4242 9.5958 13.4242H10.6933C10.8551 13.4242 10.9888 13.5579 10.9888 13.7197V14.8172ZM10.9888 11.2996C10.9888 11.4614 10.8551 11.5951 10.6933 11.5951H9.5958C9.434 11.5951 9.30033 11.4614 9.30033 11.2996V10.2021C9.30033 10.0403 9.434 9.9066 9.5958 9.9066H10.6933C10.8551 9.9066 10.9888 10.0403 10.9888 10.2021V11.2996ZM11.5234 5.23523H10.7425V6.01613C10.7425 6.40306 10.426 6.71966 10.039 6.71966C9.65209 6.71966 9.3355 6.40306 9.3355 6.01613V5.23523H8.5546C8.16767 5.23523 7.85107 4.91864 7.85107 4.53171C7.85107 4.14473 8.16767 3.82818 8.5546 3.82818H9.3355V3.04724C9.3355 2.66031 9.65209 2.34371 10.039 2.34371C10.426 2.34371 10.7425 2.66031 10.7425 3.04724V3.82818H11.5234C11.9104 3.82818 12.227 4.14473 12.227 4.53171C12.227 4.91864 11.9104 5.23523 11.5234 5.23523ZM14.5416 14.8383C14.5416 15.0071 14.4009 15.1479 14.232 15.1479H13.0923C12.9235 15.1479 12.7828 15.0071 12.7828 14.8383V13.6986C12.7828 13.5298 12.9235 13.3891 13.0923 13.3891H14.232C14.4009 13.3891 14.5416 13.5298 14.5416 13.6986V14.8383Z" fill="#8F929C"/>
</svg>
