<svg width="18" height="18" viewBox="0 0 18 18" fill="none" xmlns="http://www.w3.org/2000/svg">
<path d="M18 18H0V0H18V18Z" stroke="#E5E7EB"/>
<path d="M18 18H0V0H18V18Z" stroke="#E5E7EB"/>
<path d="M4.5 1.125V2.25H2.8125C1.88086 2.25 1.125 3.00586 1.125 3.9375V5.625H16.875V3.9375C16.875 3.00586 16.1191 2.25 15.1875 2.25H13.5V1.125C13.5 0.502734 12.9973 0 12.375 0C11.7527 0 11.25 0.502734 11.25 1.125V2.25H6.75V1.125C6.75 0.502734 6.24727 0 5.625 0C5.00273 0 4.5 0.502734 4.5 1.125ZM16.875 6.75H1.125V16.3125C1.125 17.2441 1.88086 18 2.8125 18H15.1875C16.1191 18 16.875 17.2441 16.875 16.3125V6.75ZM9 8.71875C9.46758 8.71875 9.84375 9.09492 9.84375 9.5625V11.5312H11.8125C12.2801 11.5312 12.6562 11.9074 12.6562 12.375C12.6562 12.8426 12.2801 13.2188 11.8125 13.2188H9.84375V15.1875C9.84375 15.6551 9.46758 16.0312 9 16.0312C8.53242 16.0312 8.15625 15.6551 8.15625 15.1875V13.2188H6.1875C5.71992 13.2188 5.34375 12.8426 5.34375 12.375C5.34375 11.9074 5.71992 11.5312 6.1875 11.5312H8.15625V9.5625C8.15625 9.09492 8.53242 8.71875 9 8.71875Z" fill="#385BA6"/>
</svg>
