<svg width="22" height="21" viewBox="0 0 22 21" fill="none" xmlns="http://www.w3.org/2000/svg">
<path d="M21.5 21H0.5V0H21.5V21Z" stroke="#E5E7EB"/>
<g clip-path="url(#clip0_173_4954)">
<path d="M11 0.5C9.36719 0.5 7.97656 1.54297 7.46484 3H6C4.62109 3 3.5 4.12109 3.5 5.5V18C3.5 19.3789 4.62109 20.5 6 20.5H16C17.3789 20.5 18.5 19.3789 18.5 18V5.5C18.5 4.12109 17.3789 3 16 3H14.5352C14.0234 1.54297 12.6328 0.5 11 0.5ZM11 3C11.3315 3 11.6495 3.1317 11.8839 3.36612C12.1183 3.60054 12.25 3.91848 12.25 4.25C12.25 4.58152 12.1183 4.89946 11.8839 5.13388C11.6495 5.3683 11.3315 5.5 11 5.5C10.6685 5.5 10.3505 5.3683 10.1161 5.13388C9.8817 4.89946 9.75 4.58152 9.75 4.25C9.75 3.91848 9.8817 3.60054 10.1161 3.36612C10.3505 3.1317 10.6685 3 11 3ZM6.3125 11.125C6.3125 10.8764 6.41127 10.6379 6.58709 10.4621C6.7629 10.2863 7.00136 10.1875 7.25 10.1875C7.49864 10.1875 7.7371 10.2863 7.91291 10.4621C8.08873 10.6379 8.1875 10.8764 8.1875 11.125C8.1875 11.3736 8.08873 11.6121 7.91291 11.7879C7.7371 11.9637 7.49864 12.0625 7.25 12.0625C7.00136 12.0625 6.7629 11.9637 6.58709 11.7879C6.41127 11.6121 6.3125 11.3736 6.3125 11.125ZM10.375 10.5H15.375C15.7188 10.5 16 10.7812 16 11.125C16 11.4688 15.7188 11.75 15.375 11.75H10.375C10.0312 11.75 9.75 11.4688 9.75 11.125C9.75 10.7812 10.0312 10.5 10.375 10.5ZM6.3125 14.875C6.3125 14.6264 6.41127 14.3879 6.58709 14.2121C6.7629 14.0363 7.00136 13.9375 7.25 13.9375C7.49864 13.9375 7.7371 14.0363 7.91291 14.2121C8.08873 14.3879 8.1875 14.6264 8.1875 14.875C8.1875 15.1236 8.08873 15.3621 7.91291 15.5379C7.7371 15.7137 7.49864 15.8125 7.25 15.8125C7.00136 15.8125 6.7629 15.7137 6.58709 15.5379C6.41127 15.3621 6.3125 15.1236 6.3125 14.875ZM9.75 14.875C9.75 14.5312 10.0312 14.25 10.375 14.25H15.375C15.7188 14.25 16 14.5312 16 14.875C16 15.2188 15.7188 15.5 15.375 15.5H10.375C10.0312 15.5 9.75 15.2188 9.75 14.875Z" fill="#0EA5E9"/>
</g>
<defs>
<clipPath id="clip0_173_4954">
<path d="M3.5 0.5H18.5V20.5H3.5V0.5Z" fill="white"/>
</clipPath>
</defs>
</svg>
