<svg width="16" height="19" viewBox="0 0 16 19" fill="none" xmlns="http://www.w3.org/2000/svg">
<path d="M5.5593 3.47866H10.7267C10.7838 3.47866 10.8385 3.45597 10.8789 3.4156C10.9193 3.37522 10.942 3.32045 10.942 3.26335V0.464355H5.34399V3.26335C5.34399 3.32045 5.36668 3.37522 5.40706 3.4156C5.44743 3.45597 5.5022 3.47866 5.5593 3.47866Z" fill="#059669"/>
<path d="M13.7409 0.464355H12.2338V3.26335C12.2315 3.66238 12.072 4.04441 11.7898 4.32657C11.5077 4.60873 11.1256 4.76824 10.7266 4.7705H5.55925C5.16022 4.76824 4.77819 4.60873 4.49603 4.32657C4.21387 4.04441 4.05436 3.66238 4.0521 3.26335V0.464355H2.54494C2.03102 0.464355 1.53814 0.668512 1.17474 1.03191C0.811335 1.39532 0.607178 1.88819 0.607178 2.40212V17.043C0.607178 17.557 0.811335 18.0498 1.17474 18.4132C1.53814 18.7766 2.03102 18.9808 2.54494 18.9808H13.7409C14.2549 18.9808 14.7477 18.7766 15.1111 18.4132C15.4745 18.0498 15.6787 17.557 15.6787 17.043V2.40212C15.6787 1.88819 15.4745 1.39532 15.1111 1.03191C14.7477 0.668512 14.2549 0.464355 13.7409 0.464355ZM11.5879 15.5359H4.69802C4.52671 15.5359 4.36242 15.4678 4.24128 15.3467C4.12015 15.2256 4.0521 15.0613 4.0521 14.8899C4.0521 14.7186 4.12015 14.5543 4.24128 14.4332C4.36242 14.3121 4.52671 14.244 4.69802 14.244H11.5879C11.7592 14.244 11.9235 14.3121 12.0446 14.4332C12.1657 14.5543 12.2338 14.7186 12.2338 14.8899C12.2338 15.0613 12.1657 15.2256 12.0446 15.3467C11.9235 15.4678 11.7592 15.5359 11.5879 15.5359ZM11.5879 12.091H4.69802C4.52671 12.091 4.36242 12.0229 4.24128 11.9018C4.12015 11.7806 4.0521 11.6163 4.0521 11.445C4.0521 11.2737 4.12015 11.1094 4.24128 10.9883C4.36242 10.8672 4.52671 10.7991 4.69802 10.7991H11.5879C11.7592 10.7991 11.9235 10.8672 12.0446 10.9883C12.1657 11.1094 12.2338 11.2737 12.2338 11.445C12.2338 11.6163 12.1657 11.7806 12.0446 11.9018C11.9235 12.0229 11.7592 12.091 11.5879 12.091ZM11.5879 8.64604H4.69802C4.52671 8.64604 4.36242 8.57798 4.24128 8.45685C4.12015 8.33572 4.0521 8.17142 4.0521 8.00011C4.0521 7.8288 4.12015 7.66451 4.24128 7.54338C4.36242 7.42224 4.52671 7.35419 4.69802 7.35419H11.5879C11.7592 7.35419 11.9235 7.42224 12.0446 7.54338C12.1657 7.66451 12.2338 7.8288 12.2338 8.00011C12.2338 8.17142 12.1657 8.33572 12.0446 8.45685C11.9235 8.57798 11.7592 8.64604 11.5879 8.64604Z" fill="#059669"/>
</svg>
