<svg width="28" height="20" viewBox="0 0 28 20" fill="none" xmlns="http://www.w3.org/2000/svg">
<path d="M24.5904 14.0203V15.5413C24.6287 19.5578 24.6991 19.5578 20.5739 19.5578H7.42581C5.21109 19.5578 3.40925 17.756 3.40925 15.5413V14.0203H24.5904Z" fill="#384E75"/>
<path d="M7.42608 19.5578C3.40952 19.5577 3.43044 19.5578 3.40952 15.5413V14.0203H13.9995V19.5577L7.42608 19.5578Z" fill="#2A3860"/>
<path d="M0.0217113 7.68569C0.156818 6.4945 0.896406 5.50412 2.00029 5.03644L11.7802 0.89297C12.4862 0.59382 13.2331 0.442139 14 0.442139C14.7669 0.442139 15.5137 0.59382 16.2198 0.89297L25.9997 5.03644C27.1035 5.50412 27.8432 6.49445 27.9782 7.68563C28.1133 8.87682 27.6142 10.0076 26.6431 10.7106L24.0358 12.5979H3.96405L1.35681 10.7106C0.385733 10.0076 -0.113342 8.87682 0.0217113 7.68569Z" fill="#FAF0F0"/>
<path d="M0.021883 7.68569C0.15699 6.4945 0.896579 5.50412 2.00046 5.03644L11.7804 0.89297C12.4863 0.593929 13.2329 0.442193 13.9995 0.442139V12.5979H3.96422L1.35698 10.7106C0.385905 10.0076 -0.11317 8.87682 0.021883 7.68569Z" fill="#E1EBF0"/>
<path d="M24.5903 12.1967H3.40919V15.5413H24.5903V12.1967Z" fill="#FFDA44"/>
<path d="M12.4477 6.69294C12.4477 7.24749 12.7401 7.73502 13.1788 8.00945V5.85112H12.337V4.21015H13.1788V3.28223H14.8198V4.21015H15.6616V5.85112H14.8198V8.00945C15.2585 7.73502 15.5509 7.24749 15.5509 6.69294H17.1919C17.1919 8.45339 15.7597 9.88558 13.9993 9.88558C12.2389 9.88558 10.8067 8.45333 10.8067 6.69294H12.4477Z" fill="#384E75"/>
<path d="M13.9995 12.1967H3.40952V15.5413H13.9995V12.1967Z" fill="#FFB655"/>
<path d="M10.8069 6.69294H12.4479C12.4479 7.24749 12.7403 7.73502 13.179 8.00945V5.85112H12.3372V4.21015H13.179V3.28223H13.9995V9.88558C12.2391 9.88558 10.8069 8.45333 10.8069 6.69294Z" fill="#2A3860"/>
</svg>
