<svg width="26" height="27" viewBox="0 0 26 27" fill="none" xmlns="http://www.w3.org/2000/svg">
<path d="M24.9842 11.0482L18.0509 4.11483C16.7006 2.76283 14.4993 2.76283 13.149 4.11483C12.4938 4.7683 12.1333 5.64016 12.1333 6.56576C12.1333 7.49136 12.4938 8.36323 13.149 9.0167L17.6314 13.4991L13.149 17.9815C12.4938 18.6367 12.1333 19.5068 12.1333 20.4324C12.1333 21.358 12.4938 22.2282 13.149 22.8834C13.8042 23.5386 14.6744 23.8991 15.6 23.8991C16.5256 23.8991 17.3957 23.5386 18.0509 22.8834L24.9842 15.95C25.6394 15.2966 26 14.4247 26 13.4991C26 12.5735 25.6394 11.7016 24.9842 11.0482ZM23.7588 14.7246L16.8254 21.6579C16.1685 22.3131 15.0314 22.3131 14.3745 21.6579C13.6985 20.9819 13.6985 19.883 14.3745 19.207L20.0824 13.4991L14.3745 7.79123C14.0469 7.46363 13.8666 7.02856 13.8666 6.56576C13.8666 6.10296 14.0469 5.6679 14.3745 5.3403C14.7125 5.0023 15.1562 4.83243 15.6 4.83243C16.0437 4.83243 16.4874 5.0023 16.8254 5.33856L23.7588 12.2719C24.0864 12.6012 24.2666 13.0363 24.2666 13.4991C24.2666 13.9619 24.0864 14.397 23.7588 14.7246Z" fill="#209443"/>
<path d="M12.8509 11.0482L5.9176 4.11483C4.56733 2.76283 2.366 2.76283 1.01573 4.11483C0.360533 4.7683 0 5.64016 0 6.56576C0 7.49136 0.360533 8.36323 1.01573 9.0167L5.49813 13.4991L1.01573 17.9815C0.360533 18.6367 0 19.5068 0 20.4324C0 21.358 0.360533 22.2282 1.01573 22.8834C1.67093 23.5386 2.54107 23.8991 3.46667 23.8991C4.39227 23.8991 5.2624 23.5386 5.9176 22.8834L12.8509 15.95C13.5061 15.2966 13.8667 14.4247 13.8667 13.4991C13.8667 12.5735 13.5061 11.7016 12.8509 11.0482ZM11.6255 14.7246L4.69213 21.6579C4.0352 22.3131 2.89813 22.3131 2.2412 21.6579C1.5652 20.9819 1.5652 19.883 2.2412 19.207L7.94907 13.4991L2.2412 7.79123C1.9136 7.46363 1.73333 7.02856 1.73333 6.56576C1.73333 6.10296 1.9136 5.6679 2.2412 5.3403C2.5792 5.0023 3.02293 4.83243 3.46667 4.83243C3.9104 4.83243 4.35413 5.0023 4.69213 5.33856L11.6255 12.2719C11.9531 12.6012 12.1333 13.0363 12.1333 13.4991C12.1333 13.9619 11.9531 14.397 11.6255 14.7246Z" fill="#209443"/>
</svg>
