<svg width="16" height="17" viewBox="0 0 16 17" fill="none" xmlns="http://www.w3.org/2000/svg">
<path d="M8.01262 0.969727C8.73635 0.969727 9.31927 1.41593 9.31927 2.10209C9.31927 2.53398 9.33435 2.85624 9.60575 2.93878C11.9137 3.63568 13.3936 5.26919 13.3936 7.39056V10.9561C13.3936 12.5896 14.0619 12.9203 14.9029 13.5451C16.1209 14.4485 15.8428 16.3296 14.4452 16.3284H1.58054C0.182906 16.3296 -0.0951376 14.4485 1.12284 13.5451C1.96285 12.9203 2.63215 12.5896 2.63215 10.9561V7.39056C2.63215 5.26919 4.11207 3.63568 6.42 2.93878C6.69063 2.85624 6.70647 2.53398 6.70647 2.10209C6.70673 1.41593 7.28991 0.969727 8.01262 0.969727Z" fill="#7441CD"/>
</svg>
