<svg width="24" height="23" viewBox="0 0 24 23" fill="none" xmlns="http://www.w3.org/2000/svg">
<path d="M14.6665 17.3284C14.6665 18.277 14.1607 19.003 13.3394 19.4776C12.5183 19.9519 11.5065 19.9519 10.687 19.4776C9.86535 19.003 9.35986 18.277 9.35986 17.3284" fill="#7441CD"/>
<path d="M12.0126 1.96985C12.7364 1.96985 13.3193 2.41605 13.3193 3.10222C13.3193 3.5341 13.3344 3.85636 13.6058 3.9389C15.9137 4.6358 17.3936 6.26932 17.3936 8.39068V11.9562C17.3936 13.5897 18.0619 13.9204 18.9029 14.5452C20.1209 15.4486 19.8428 17.3298 18.4452 17.3285H5.58054C4.18291 17.3298 3.90486 15.4486 5.12284 14.5452C5.96285 13.9204 6.63215 13.5897 6.63215 11.9562V8.39068C6.63215 6.26932 8.11207 4.6358 10.42 3.9389C10.6906 3.85636 10.7065 3.5341 10.7065 3.10222C10.7067 2.41605 11.2899 1.96985 12.0126 1.96985Z" fill="#7441CD"/>
</svg>
