<svg width="21" height="21" viewBox="0 0 21 21" fill="none" xmlns="http://www.w3.org/2000/svg">
<path d="M19.0881 17.197H17.9049V8.70408C17.9049 8.31011 17.5813 7.98647 17.1803 7.98647H14.6687V2.21761C14.6687 1.82364 14.3451 1.5 13.9511 1.5H7.34504C6.95107 1.5 6.62743 1.82364 6.62743 2.21761V7.98647H4.1088C3.70779 7.98647 3.38419 8.31011 3.38419 8.70408V17.197H2.20352C1.81466 17.197 1.5 17.5116 1.5 17.9005C1.5 18.2893 1.81466 18.604 2.20352 18.604H19.0881C19.477 18.604 19.7916 18.2893 19.7916 17.9005C19.7916 17.5116 19.477 17.197 19.0881 17.197ZM13.325 10.7092C13.325 10.5473 13.4587 10.4136 13.6205 10.4136H14.7039C14.8657 10.4136 14.9994 10.5473 14.9994 10.7092V11.7926C14.9994 11.9544 14.8657 12.088 14.7039 12.088H13.6205C13.4587 12.088 13.325 11.9544 13.325 11.7926V10.7092ZM7.96414 15.3102C7.96414 15.472 7.83047 15.6057 7.66863 15.6057H6.58522C6.42342 15.6057 6.28975 15.472 6.28975 15.3102V14.2268C6.28975 14.0649 6.42342 13.9313 6.58522 13.9313H7.66863C7.83047 13.9313 7.96414 14.0649 7.96414 14.2268V15.3102ZM8.00635 11.8207C8.00635 11.9895 7.86564 12.1302 7.6968 12.1302H6.5571C6.38821 12.1302 6.24754 11.9895 6.24754 11.8207V10.681C6.24754 10.5121 6.38821 10.3714 6.5571 10.3714H7.6968C7.86564 10.3714 8.00635 10.5121 8.00635 10.681V11.8207ZM11.4888 15.3172C11.4888 15.479 11.3551 15.6127 11.1933 15.6127H10.0958C9.934 15.6127 9.80033 15.479 9.80033 15.3172V14.2197C9.80033 14.0579 9.934 13.9242 10.0958 13.9242H11.1933C11.3551 13.9242 11.4888 14.0579 11.4888 14.2197V15.3172ZM11.4888 11.7996C11.4888 11.9614 11.3551 12.0951 11.1933 12.0951H10.0958C9.934 12.0951 9.80033 11.9614 9.80033 11.7996V10.7021C9.80033 10.5403 9.934 10.4066 10.0958 10.4066H11.1933C11.3551 10.4066 11.4888 10.5403 11.4888 10.7021V11.7996ZM12.0234 5.73523H11.2425V6.51613C11.2425 6.90306 10.926 7.21966 10.539 7.21966C10.1521 7.21966 9.8355 6.90306 9.8355 6.51613V5.73523H9.0546C8.66767 5.73523 8.35107 5.41864 8.35107 5.03171C8.35107 4.64473 8.66767 4.32818 9.0546 4.32818H9.8355V3.54724C9.8355 3.16031 10.1521 2.84371 10.539 2.84371C10.926 2.84371 11.2425 3.16031 11.2425 3.54724V4.32818H12.0234C12.4104 4.32818 12.727 4.64473 12.727 5.03171C12.727 5.41864 12.4104 5.73523 12.0234 5.73523ZM15.0416 15.3383C15.0416 15.5071 14.9009 15.6479 14.732 15.6479H13.5923C13.4235 15.6479 13.2828 15.5071 13.2828 15.3383V14.1986C13.2828 14.0298 13.4235 13.8891 13.5923 13.8891H14.732C14.9009 13.8891 15.0416 14.0298 15.0416 14.1986V15.3383Z" fill="#385BA6"/>
</svg>
