<svg width="16" height="21" viewBox="0 0 16 21" fill="none" xmlns="http://www.w3.org/2000/svg">
<g clip-path="url(#clip0_261_3463)">
<path d="M1.75 0.5C1.05859 0.5 0.5 1.05859 0.5 1.75C0.5 2.44141 1.05859 3 1.75 3V3.42969C1.75 5.08594 2.41016 6.67578 3.58203 7.84766L6.23047 10.5L3.58203 13.1523C2.41016 14.3242 1.75 15.9141 1.75 17.5703V18C1.05859 18 0.5 18.5586 0.5 19.25C0.5 19.9414 1.05859 20.5 1.75 20.5H3H13H14.25C14.9414 20.5 15.5 19.9414 15.5 19.25C15.5 18.5586 14.9414 18 14.25 18V17.5703C14.25 15.9141 13.5898 14.3242 12.418 13.1523L9.76953 10.5L12.4219 7.84766C13.5938 6.67578 14.2539 5.08594 14.2539 3.42969V3C14.9453 3 15.5039 2.44141 15.5039 1.75C15.5039 1.05859 14.9453 0.5 14.2539 0.5H13H3H1.75ZM4.25 3.42969V3H11.75V3.42969C11.75 4.17188 11.5312 4.89062 11.125 5.5H4.875C4.47266 4.89062 4.25 4.17188 4.25 3.42969ZM4.875 15.5C5.01172 15.293 5.17188 15.0977 5.34766 14.918L8 12.2695L10.6523 14.9219C10.832 15.1016 10.9883 15.2969 11.125 15.5039H4.875V15.5Z" fill="#CA8A04"/>
</g>
<defs>
<clipPath id="clip0_261_3463">
<path d="M0.5 0.5H15.5V20.5H0.5V0.5Z" fill="white"/>
</clipPath>
</defs>
</svg>
