<svg width="14" height="24" viewBox="0 0 14 24" fill="none" xmlns="http://www.w3.org/2000/svg">
<path d="M14 24H0V0H14V24Z" stroke="#E5E7EB"/>
<g clip-path="url(#clip0_284_4122)">
<path d="M7 11C8.06087 11 9.07828 10.5786 9.82843 9.82843C10.5786 9.07828 11 8.06087 11 7C11 5.93913 10.5786 4.92172 9.82843 4.17157C9.07828 3.42143 8.06087 3 7 3C5.93913 3 4.92172 3.42143 4.17157 4.17157C3.42143 4.92172 3 5.93913 3 7C3 8.06087 3.42143 9.07828 4.17157 9.82843C4.92172 10.5786 5.93913 11 7 11ZM5.57188 12.5C2.49375 12.5 0 14.9937 0 18.0719C0 18.5844 0.415625 19 0.928125 19H13.0719C13.5844 19 14 18.5844 14 18.0719C14 14.9937 11.5063 12.5 8.42813 12.5H5.57188Z" fill="#385BA6"/>
</g>
<defs>
<clipPath id="clip0_284_4122">
<path d="M0 3H14V19H0V3Z" fill="white"/>
</clipPath>
</defs>
</svg>
