<svg width="20" height="21" viewBox="0 0 20 21" fill="none" xmlns="http://www.w3.org/2000/svg">
<g clip-path="url(#clip0_269_3785)">
<path d="M2.92969 3.42969L1.60156 2.10156C1.01172 1.51172 0 1.92969 0 2.76172V7.0625C0 7.58203 0.417969 8 0.9375 8H5.23828C6.07422 8 6.49219 6.98828 5.90234 6.39844L4.69922 5.19531C6.05469 3.83984 7.92969 3 10 3C14.1406 3 17.5 6.35938 17.5 10.5C17.5 14.6406 14.1406 18 10 18C8.40625 18 6.92969 17.5039 5.71484 16.6562C5.14844 16.2617 4.37109 16.3984 3.97266 16.9648C3.57422 17.5312 3.71484 18.3086 4.28125 18.707C5.90625 19.8359 7.87891 20.5 10 20.5C15.5234 20.5 20 16.0234 20 10.5C20 4.97656 15.5234 0.5 10 0.5C7.23828 0.5 4.73828 1.62109 2.92969 3.42969ZM10 5.5C9.48047 5.5 9.0625 5.91797 9.0625 6.4375V10.5C9.0625 10.75 9.16016 10.9883 9.33594 11.1641L12.1484 13.9766C12.5156 14.3438 13.1094 14.3438 13.4727 13.9766C13.8359 13.6094 13.8398 13.0156 13.4727 12.6523L10.9336 10.1133V6.4375C10.9336 5.91797 10.5156 5.5 9.99609 5.5H10Z" fill="#EA580C"/>
</g>
<defs>
<clipPath id="clip0_269_3785">
<path d="M0 0.5H20V20.5H0V0.5Z" fill="white"/>
</clipPath>
</defs>
</svg>
