<svg width="29" height="28" viewBox="0 0 29 28" fill="none" xmlns="http://www.w3.org/2000/svg">
<path d="M11.5287 6.66959H17.8194C17.889 6.66959 17.9556 6.64197 18.0048 6.59282C18.0539 6.54366 18.0815 6.47699 18.0815 6.40747V3H11.2666V6.40747C11.2666 6.47699 11.2942 6.54366 11.3434 6.59282C11.3925 6.64197 11.4592 6.66959 11.5287 6.66959Z" fill="#8F929C"/>
<path d="M21.4889 3H19.6541V6.40747C19.6514 6.89324 19.4572 7.35833 19.1137 7.70183C18.7702 8.04532 18.3051 8.23951 17.8193 8.24227H11.5286C11.0428 8.23951 10.5777 8.04532 10.2343 7.70183C9.89076 7.35833 9.69657 6.89324 9.69381 6.40747V3H7.85902C7.23337 3 6.63334 3.24854 6.19094 3.69094C5.74854 4.13334 5.5 4.73337 5.5 5.35902V23.1827C5.5 23.8084 5.74854 24.4084 6.19094 24.8508C6.63334 25.2932 7.23337 25.5417 7.85902 25.5417H21.4889C22.1146 25.5417 22.7146 25.2932 23.157 24.8508C23.5994 24.4084 23.8479 23.8084 23.8479 23.1827V5.35902C23.8479 4.73337 23.5994 4.13334 23.157 3.69094C22.7146 3.24854 22.1146 3 21.4889 3ZM18.8678 21.3479H10.4802C10.2716 21.3479 10.0716 21.2651 9.92413 21.1176C9.77666 20.9702 9.69381 20.7701 9.69381 20.5616C9.69381 20.353 9.77666 20.153 9.92413 20.0056C10.0716 19.8581 10.2716 19.7753 10.4802 19.7753H18.8678C19.0763 19.7753 19.2763 19.8581 19.4238 20.0056C19.5713 20.153 19.6541 20.353 19.6541 20.5616C19.6541 20.7701 19.5713 20.9702 19.4238 21.1176C19.2763 21.2651 19.0763 21.3479 18.8678 21.3479ZM18.8678 17.1541H10.4802C10.2716 17.1541 10.0716 17.0713 9.92413 16.9238C9.77666 16.7763 9.69381 16.5763 9.69381 16.3678C9.69381 16.1592 9.77666 15.9592 9.92413 15.8118C10.0716 15.6643 10.2716 15.5814 10.4802 15.5814H18.8678C19.0763 15.5814 19.2763 15.6643 19.4238 15.8118C19.5713 15.9592 19.6541 16.1592 19.6541 16.3678C19.6541 16.5763 19.5713 16.7763 19.4238 16.9238C19.2763 17.0713 19.0763 17.1541 18.8678 17.1541ZM18.8678 12.9603H10.4802C10.2716 12.9603 10.0716 12.8775 9.92413 12.73C9.77666 12.5825 9.69381 12.3825 9.69381 12.174C9.69381 11.9654 9.77666 11.7654 9.92413 11.6179C10.0716 11.4705 10.2716 11.3876 10.4802 11.3876H18.8678C19.0763 11.3876 19.2763 11.4705 19.4238 11.6179C19.5713 11.7654 19.6541 11.9654 19.6541 12.174C19.6541 12.3825 19.5713 12.5825 19.4238 12.73C19.2763 12.8775 19.0763 12.9603 18.8678 12.9603Z" fill="#8F929C"/>
</svg>
