<svg width="18" height="18" viewBox="0 0 18 18" fill="none" xmlns="http://www.w3.org/2000/svg">
<g clip-path="url(#clip0_284_4485)">
<path d="M9 0C9.16172 0 9.32344 0.0351563 9.47109 0.101953L16.091 2.91094C16.8645 3.23789 17.441 4.00078 17.4375 4.92188C17.4199 8.40938 15.9855 14.7902 9.92813 17.6906C9.34102 17.9719 8.65899 17.9719 8.07188 17.6906C2.01445 14.7902 0.580079 8.40938 0.562501 4.92188C0.558985 4.00078 1.13555 3.23789 1.90899 2.91094L8.53242 0.101953C8.67656 0.0351563 8.83828 0 9 0ZM9 2.34844V15.6375C13.8516 13.2891 15.1559 8.08945 15.1875 4.97109L9 2.34844Z" fill="#385BA6"/>
</g>
<defs>
<clipPath id="clip0_284_4485">
<path d="M0 0H18V18H0V0Z" fill="white"/>
</clipPath>
</defs>
</svg>
