<svg width="21" height="22" viewBox="0 0 21 22" fill="none" xmlns="http://www.w3.org/2000/svg">
<path fill-rule="evenodd" clip-rule="evenodd" d="M10.5 0C11.1444 0 11.6667 0.492492 11.6667 1.1V12.1C11.6667 12.7075 11.1444 13.2 10.5 13.2C9.85565 13.2 9.33333 12.7075 9.33333 12.1V1.1C9.33333 0.492492 9.85565 0 10.5 0ZM6.84321 3.92648C7.16584 4.45235 6.97525 5.12525 6.41752 5.42945C3.97344 6.76248 2.33333 9.25133 2.33333 12.1C2.33333 16.3526 5.98968 19.8 10.5 19.8C15.0103 19.8 18.6667 16.3526 18.6667 12.1C18.6667 9.25133 17.0266 6.76248 14.5825 5.42945C14.0247 5.12525 13.8342 4.45235 14.1568 3.92648C14.4794 3.40062 15.1931 3.22092 15.7508 3.52512C18.8862 5.23521 21 8.43422 21 12.1C21 17.5677 16.299 22 10.5 22C4.70101 22 0 17.5677 0 12.1C0 8.43422 2.11374 5.23521 5.24915 3.52512C5.80688 3.22092 6.52057 3.40062 6.84321 3.92648Z" fill="#8F929C"/>
</svg>
