<svg width="100" height="100" viewBox="0 0 100 100" fill="none" xmlns="http://www.w3.org/2000/svg">
<g clip-path="url(#clip0_48_305)">
<path fill-rule="evenodd" clip-rule="evenodd" d="M73.3008 86.3941H15.8594V7.95014C15.8594 6.75518 16.3516 5.66463 17.1543 4.87572C17.9512 4.08682 19.0469 3.59955 20.2598 3.59955H29.1016L30.3242 8.1551C30.5566 9.01555 31.3145 9.59176 32.2129 9.59176H56.9434C57.8398 9.59176 58.5996 9.01555 58.832 8.1551L60.0547 3.59955H68.9023C70.1094 3.59955 71.2109 4.08682 72.0078 4.87572C72.8047 5.66463 73.2969 6.75518 73.2969 7.95014V19.8611C73.7949 19.7238 74.3203 19.6464 74.8633 19.6464C75.4004 19.6464 75.9258 19.7238 76.4238 19.8611V7.95014C76.4238 5.90053 75.5762 4.03654 74.2149 2.68883C72.8574 1.33918 70.9746 0.5 68.9043 0.5H20.2617C18.1914 0.5 16.3086 1.33918 14.9453 2.68689C13.5781 4.03461 12.7363 5.89859 12.7363 7.9482V87.939V89.7585V92.0499C12.7363 94.0995 13.5781 95.9635 14.9453 97.3112C16.3066 98.6647 18.1895 99.4981 20.2598 99.4981H68.9023C70.9727 99.4981 72.8555 98.6647 74.2168 97.3112C75.5781 95.9635 76.4258 94.0995 76.4258 92.0499V89.7585V87.939V77.8824H73.3008V86.3941ZM46.957 94.4958H42.2012C41.3438 94.4958 40.6406 93.7998 40.6406 92.9451C40.6406 92.0963 41.3438 91.4002 42.2012 91.4002H46.957C47.8203 91.4002 48.5176 92.0963 48.5176 92.9451C48.5195 93.7998 47.8223 94.4958 46.957 94.4958ZM37.0098 71.662C37.0098 73.3829 38.4336 74.7867 40.166 74.7867H84.1094C85.8477 74.7867 87.2656 73.3829 87.2656 71.662V39.8428H37.0117V71.662H37.0098ZM50.8496 55.1202C50.8496 54.484 51.375 53.9639 52.0176 53.9639H58.75V47.2988C58.75 46.6626 59.2754 46.1425 59.918 46.1425H64.3574C65 46.1425 65.5254 46.6626 65.5254 47.2988V53.9639H72.2578C72.9004 53.9639 73.4199 54.484 73.4199 55.1202V59.5152C73.4199 60.1514 72.9004 60.6657 72.2578 60.6657H65.5273V67.3366C65.5273 67.9727 65.002 68.4871 64.3594 68.4871H59.9199C59.2774 68.4871 58.752 67.9727 58.752 67.3366V60.6657H52.0195C51.377 60.6657 50.8516 60.1514 50.8516 59.5152V55.1202H50.8496ZM87.2637 30.2406V36.7529H37.0098V30.2406C37.0098 28.5255 38.4336 27.1159 40.166 27.1159H43.627V28.8639C43.627 32.0156 46.2227 34.5912 49.4121 34.5912C52.6016 34.5912 55.1953 32.0176 55.1953 28.8658V27.1179H69.0801V28.8658C69.0801 32.0176 71.6758 34.5931 74.8652 34.5931C78.0547 34.5931 80.6504 32.0176 80.6504 28.8658V27.1179H84.1055C85.8457 27.1159 87.2637 28.5255 87.2637 30.2406ZM74.8672 22.7421C76.3281 22.7421 77.5254 23.9255 77.5254 25.3737V28.8658C77.5254 30.3121 76.3301 31.4974 74.8672 31.4974C73.4004 31.4974 72.2051 30.3141 72.2051 28.8658V25.3737C72.2031 23.9274 73.4004 22.7421 74.8672 22.7421ZM49.4102 22.7421C50.8711 22.7421 52.0723 23.9255 52.0723 25.3737V28.8658C52.0723 30.3121 50.8711 31.4974 49.4102 31.4974C47.9492 31.4974 46.7481 30.3141 46.7481 28.8658V25.3737C46.7481 23.9274 47.9492 22.7421 49.4102 22.7421Z" fill="#385BA6"/>
</g>
<defs>
<clipPath id="clip0_48_305">
<rect width="100" height="99" fill="white" transform="translate(0 0.5)"/>
</clipPath>
</defs>
</svg>
