<svg width="15" height="18" viewBox="0 0 15 18" fill="none" xmlns="http://www.w3.org/2000/svg">
<g clip-path="url(#clip0_284_4856)">
<path d="M2.83333 0C1.54635 0 0.5 1.00898 0.5 2.25V15.75C0.5 16.991 1.54635 18 2.83333 18H12.1667C13.4536 18 14.5 16.991 14.5 15.75V5.625H9.83333C9.18802 5.625 8.66667 5.12227 8.66667 4.5V0H2.83333ZM9.83333 0V4.5H14.5L9.83333 0ZM8.375 14.3438C8.375 14.8113 7.9849 15.1875 7.5 15.1875C7.0151 15.1875 6.625 14.8113 6.625 14.3438V10.7543L5.49479 11.8441C5.15208 12.1746 4.59792 12.1746 4.25885 11.8441C3.91979 11.5137 3.91615 10.9793 4.25885 10.6523L6.88385 8.12109C7.22656 7.79063 7.78073 7.79063 8.11979 8.12109L10.7448 10.6523C11.0875 10.9828 11.0875 11.5172 10.7448 11.8441C10.4021 12.1711 9.84792 12.1746 9.50885 11.8441L8.37865 10.7543V14.3438H8.375Z" fill="#385BA6"/>
</g>
<defs>
<clipPath id="clip0_284_4856">
<path d="M0.5 0H14.5V18H0.5V0Z" fill="white"/>
</clipPath>
</defs>
</svg>
