<svg width="38" height="36" viewBox="0 0 38 36" fill="none" xmlns="http://www.w3.org/2000/svg">
<path d="M37.75 36H0.25V0H37.75V36Z" stroke="#E5E7EB"/>
<g clip-path="url(#clip0_284_4860)">
<path d="M8.6875 29.875C4.0293 29.875 0.25 26.0957 0.25 21.4375C0.25 17.7578 2.60547 14.6289 5.88672 13.4746C5.88086 13.3164 5.875 13.1582 5.875 13C5.875 7.82031 10.0703 3.625 15.25 3.625C18.7246 3.625 21.7539 5.51172 23.377 8.32422C24.2676 7.72656 25.3457 7.375 26.5 7.375C29.6055 7.375 32.125 9.89453 32.125 13C32.125 13.7148 31.9902 14.3945 31.75 15.0273C35.1719 15.7188 37.75 18.748 37.75 22.375C37.75 26.5176 34.3926 29.875 30.25 29.875H8.6875ZM13.3164 17.1602C12.7656 17.7109 12.7656 18.6016 13.3164 19.1465C13.8672 19.6914 14.7578 19.6973 15.3027 19.1465L17.5879 16.8613V24.7188C17.5879 25.498 18.2148 26.125 18.9941 26.125C19.7734 26.125 20.4004 25.498 20.4004 24.7188V16.8613L22.6855 19.1465C23.2363 19.6973 24.127 19.6973 24.6719 19.1465C25.2168 18.5957 25.2227 17.7051 24.6719 17.1602L19.9844 12.4727C19.4336 11.9219 18.543 11.9219 17.998 12.4727L13.3105 17.1602H13.3164Z" fill="#9CA3AF"/>
</g>
<defs>
<clipPath id="clip0_284_4860">
<path d="M0.25 1.75H37.75V31.75H0.25V1.75Z" fill="white"/>
</clipPath>
</defs>
</svg>
